<svg width="289" height="64" viewBox="0 0 289 64" fill="none" xmlns="http://www.w3.org/2000/svg">
<path d="M93.9247 37.5294H90.6894C90.7412 37.6329 90.8188 37.7969 90.9224 38.0212C91.0259 38.2282 91.1035 38.3835 91.1553 38.4871L88.5671 40.1694C88.2565 39.4274 87.8078 38.349 87.2212 36.9341V43.12C90.258 41.4463 92.4925 39.5827 93.9247 37.5294ZM91.6729 33.6471L88.3859 32.3271C88.4204 32.2753 88.4808 32.1545 88.5671 31.9647C88.6706 31.7749 88.7482 31.6282 88.8 31.5247H87.7129C87.851 31.818 88.058 32.2494 88.3341 32.8188C88.6275 33.371 88.8431 33.7851 88.9812 34.0612H94.9341V30.4118H93.1224C92.6737 31.6541 92.1906 32.7325 91.6729 33.6471ZM105.054 34.0612V37.5294H100.059C101.215 39.669 103.027 41.5239 105.494 43.0941L104.019 46.7176C102.086 45.4925 100.395 43.7498 98.9459 41.4894V47.8047H94.8306V41.5412C93.0533 43.7325 91.0173 45.458 88.7224 46.7176L87.2212 43.7153V47.8047H83.5976V39.0306C83.0627 40.6871 82.4502 42.0416 81.76 43.0941L80.2071 39.0306C81.6565 36.6839 82.6486 34.182 83.1835 31.5247H80.8282V28.16H83.5976V24.1482H87.2212V28.16H89.3694V30.1529C90.1114 28.2722 90.629 26.3569 90.9224 24.4071L94.3647 24.8729C94.2957 25.4423 94.1835 26.1671 94.0282 27.0471H94.9341V24.1482H99.0235V27.0471H104.459V30.4118H99.0235V34.0612H105.054ZM121.024 44.7247C117.573 45.6047 113.198 46.3553 107.901 46.9765L107.435 43.6118C108.574 43.491 109.963 43.3184 111.602 43.0941V36.2612H108.082V33H119.341V36.2612H115.718V42.4471C117.926 42.0502 119.531 41.731 120.532 41.4894L121.024 44.7247ZM124.129 25.8047L125.967 23.3459C127.572 24.2949 128.978 25.2267 130.186 26.1412L129.176 27.4871H130.6V30.7741H123.922C124.129 33.3451 124.44 35.6486 124.854 37.6847C125.285 39.7035 125.7 41.1702 126.096 42.0847C126.493 42.982 126.83 43.4306 127.106 43.4306C127.485 43.4306 127.796 42.0761 128.038 39.3671L131.195 40.7647C131.057 43.0941 130.643 44.8282 129.953 45.9671C129.263 47.1231 128.443 47.7012 127.494 47.7012C126.614 47.7012 125.795 47.4251 125.035 46.8729C124.276 46.338 123.543 45.458 122.835 44.2329C122.128 43.0078 121.524 41.2565 121.024 38.9788C120.523 36.6839 120.169 33.949 119.962 30.7741H107.047V27.4871H119.833C119.798 26.0031 119.781 24.8384 119.781 23.9929H123.664C123.664 25.218 123.689 26.3827 123.741 27.4871H126.795C126.243 27.1074 125.355 26.5467 124.129 25.8047ZM150.115 42.8094C149.995 42.5678 149.805 42.1796 149.546 41.6447C149.304 41.1098 149.123 40.7129 149.002 40.4541L151.849 39.4706H144.421C143.869 40.7474 143.231 42.0674 142.506 43.4306C145.922 43.189 148.459 42.982 150.115 42.8094ZM152.005 32.6118V34.3718H137.407V32.6118C136.216 33.371 134.948 34.0698 133.602 34.7082L132.101 31.3435C135.949 29.3592 139.271 26.9867 142.066 24.2259H147.346C150.141 26.9867 153.463 29.3592 157.311 31.3435L155.809 34.7082C154.464 34.0698 153.195 33.371 152.005 32.6118ZM149.753 31.1106C147.907 29.7992 146.224 28.3671 144.706 26.8141C143.187 28.3671 141.505 29.7992 139.659 31.1106H149.753ZM133.447 39.4706V36.1059H155.965V39.4706H152.678C153.92 41.9898 155.102 44.5004 156.224 47.0023L152.574 48.2188C152.022 46.9765 151.685 46.2259 151.565 45.9671C145.353 46.6573 139.633 47.08 134.405 47.2353L134.172 43.8706C135.794 43.8016 137.019 43.7498 137.847 43.7153C138.503 42.5592 139.227 41.1443 140.021 39.4706H133.447ZM166.007 27.8753H169.242V29.2729H174.16V24.3035H178.301V29.2729H182.416V32.7412H178.301V43.5082H182.701V47.08H167.871V43.5082H174.16V32.7412H168.673C168.449 33.1898 168.078 33.8455 167.56 34.7082C169.182 36.3647 170.536 37.84 171.624 39.1341L168.854 41.4376C168.095 40.5059 167.111 39.3929 165.904 38.0988V47.8047H161.892V40.2988C161.046 40.9718 160.114 41.5757 159.096 42.1106L158.191 37.9694C161.348 36.3129 163.591 34.1388 164.92 31.4471H158.941V27.8753H161.995V24.1482H166.007V27.8753Z" fill="black"/>
<path d="M200.688 31.3318C198.803 30.3991 196.819 29.9328 194.735 29.9328C193.703 29.9328 192.919 30.1313 192.384 30.5281C191.848 30.925 191.58 31.4607 191.58 32.1354C191.58 33.2466 192.413 34.0404 194.08 34.5166C197.037 35.3302 199.111 36.3025 200.301 37.4335C201.512 38.5646 202.117 40.0231 202.117 41.8089C202.117 43.9123 201.402 45.5196 199.974 46.6308C198.545 47.742 196.432 48.2976 193.634 48.2976C192.384 48.2976 191.084 48.1091 189.735 47.7321C188.385 47.3353 187.254 46.8293 186.341 46.2141L187.532 42.2554C189.556 43.6444 191.659 44.3389 193.842 44.3389C194.874 44.3389 195.648 44.1306 196.164 43.7139C196.7 43.2773 196.967 42.6721 196.967 41.8982C196.967 41.2633 196.749 40.7473 196.313 40.3505C195.896 39.9536 195.152 39.5964 194.08 39.2789C191.362 38.4852 189.407 37.5228 188.217 36.3918C187.026 35.2409 186.431 33.8221 186.431 32.1354C186.431 30.2503 187.135 28.7522 188.544 27.6409C189.973 26.5297 191.967 25.9741 194.527 25.9741C197.245 25.9741 199.607 26.4504 201.611 27.4028L200.688 31.3318ZM208.065 38.892H214.196C214.177 36.61 213.165 35.4691 211.16 35.4691C210.248 35.4691 209.523 35.7667 208.988 36.362C208.452 36.9375 208.144 37.7808 208.065 38.892ZM208.095 41.8387C208.234 42.811 208.64 43.575 209.315 44.1306C210.009 44.6664 210.902 44.9342 211.994 44.9342C213.462 44.9342 214.901 44.5771 216.31 43.8627L217.351 47.1071C215.585 47.9008 213.651 48.2976 211.547 48.2976C209.087 48.2976 207.102 47.5734 205.594 46.1248C204.106 44.6763 203.362 42.7217 203.362 40.2612C203.362 37.7808 204.057 35.8262 205.446 34.3975C206.835 32.949 208.7 32.2247 211.041 32.2247C213.442 32.2247 215.308 32.9192 216.637 34.3082C217.967 35.6774 218.631 37.6419 218.631 40.2016C218.631 40.8168 218.592 41.3625 218.512 41.8387H208.095ZM227.481 33.1176H232.541V36.4811H227.481V42.0471C227.481 43.1186 227.61 43.8329 227.868 44.1901C228.126 44.5473 228.592 44.7259 229.267 44.7259C230.12 44.7259 231.013 44.5671 231.945 44.2496L232.481 47.7024C231.072 48.0992 229.624 48.2976 228.136 48.2976C226.231 48.2976 224.832 47.871 223.939 47.0178C223.066 46.1645 222.629 44.7755 222.629 42.8507V36.4811H219.444V33.1176H222.629V27.4624H227.481V33.1176ZM241.986 33.1176H247.046V36.4811H241.986V42.0471C241.986 43.1186 242.115 43.8329 242.373 44.1901C242.631 44.5473 243.098 44.7259 243.772 44.7259C244.626 44.7259 245.518 44.5671 246.451 44.2496L246.987 47.7024C245.578 48.0992 244.129 48.2976 242.641 48.2976C240.736 48.2976 239.337 47.871 238.444 47.0178C237.571 46.1645 237.135 44.7755 237.135 42.8507V36.4811H233.95V33.1176H237.135V27.4624H241.986V33.1176ZM250.525 48V25.6765H255.555V48H250.525ZM262.687 38.892H268.818C268.798 36.61 267.786 35.4691 265.782 35.4691C264.869 35.4691 264.145 35.7667 263.609 36.362C263.073 36.9375 262.766 37.7808 262.687 38.892ZM262.716 41.8387C262.855 42.811 263.262 43.575 263.937 44.1306C264.631 44.6664 265.524 44.9342 266.615 44.9342C268.084 44.9342 269.523 44.5771 270.931 43.8627L271.973 47.1071C270.207 47.9008 268.272 48.2976 266.169 48.2976C263.708 48.2976 261.724 47.5734 260.216 46.1248C258.728 44.6763 257.984 42.7217 257.984 40.2612C257.984 37.7808 258.678 35.8262 260.067 34.3975C261.456 32.949 263.322 32.2247 265.663 32.2247C268.064 32.2247 269.929 32.9192 271.259 34.3082C272.588 35.6774 273.253 37.6419 273.253 40.2016C273.253 40.8168 273.213 41.3625 273.134 41.8387H262.716ZM275.101 32.5224H279.625L279.655 35.4988H279.714C281.441 33.3161 283.802 32.2247 286.798 32.2247V36.0346C284.576 36.0346 282.879 36.5108 281.709 37.4633C280.538 38.4158 279.952 39.7155 279.952 41.3625V48H275.101V32.5224Z" fill="black"/>
<path d="M13.1657 0.5H50.8343C57.8294 0.5 63.5 6.17063 63.5 13.1657V50.8343C63.5 57.8294 57.8294 63.5 50.8343 63.5H13.1657C6.17063 63.5 0.5 57.8294 0.5 50.8343V13.1657C0.5 6.17063 6.17063 0.5 13.1657 0.5Z" fill="white" stroke="#EFEFEF"/>
<path fill-rule="evenodd" clip-rule="evenodd" d="M28.7534 54.2256L51.6118 45.8873L33.7873 29.3248L28.7534 54.2256ZM33.7869 29.3247L10.9285 37.6627L28.7529 54.2256L33.7869 29.3247Z" fill="#152E37"/>
<path fill-rule="evenodd" clip-rule="evenodd" d="M30.2758 46.0361L53.2558 38.0394L35.6803 21.2132L30.2758 46.0361ZM35.6796 21.2132L12.6996 29.2098L30.2753 46.0361L35.6796 21.2132Z" fill="url(#paint0_linear_89_84)"/>
<path d="M50.7084 10.2418L48.3181 22.8754L38.0748 12.6319L50.7084 10.2418Z" fill="#152E37"/>
<defs>
<linearGradient id="paint0_linear_89_84" x1="60.483" y1="48.2022" x2="8.6534" y2="33.0456" gradientUnits="userSpaceOnUse">
<stop offset="0.289318" stop-color="#A2B9FF"/>
<stop offset="0.679688" stop-color="#89DBFA"/>
<stop offset="1" stop-color="#BDF3FF"/>
</linearGradient>
</defs>
</svg>
